; NON-PLATED HOLES START AT T1
; THROUGH (PLATED) HOLES START AT T100
M48
INCH
T100C0.040000
T101C0.038000
T102C0.031497
T103C0.039370
T104C0.027559
T105C0.035000
T106C0.040278
%
T100
X036110Y002315
X036110Y006315
X026736Y002334
X007358Y008981
X009918Y010761
X016736Y002334
X036231Y021194
X001736Y002334
X009736Y002334
X007736Y002334
X036231Y023194
X005736Y002334
X003736Y002334
X020736Y002334
X013736Y002334
X036231Y019194
X009918Y008981
X007358Y010761
X024736Y002334
X011736Y002334
X036110Y004315
X018736Y002334
X036110Y008315
X022736Y002334
X036231Y025194
X036231Y017194
X036110Y010315
T101
X015736Y011134
X017736Y011134
X025736Y011134
X021736Y011134
X014736Y011134
X013151Y024174
X009151Y024174
X016151Y024174
X012736Y011134
X016736Y011134
X018736Y011134
X022736Y011134
X014151Y024174
X021736Y024134
X017151Y024174
X015151Y024174
X022736Y024134
X020736Y024134
X011736Y011134
X011151Y024174
X013736Y011134
X024736Y011134
X020736Y011134
X023736Y024134
X023736Y011134
X012151Y024174
X019736Y024134
X025736Y024134
X010151Y024174
X008151Y024174
X018736Y024134
X024736Y024134
T102
X030752Y013134
X031736Y013134
T103
X015736Y032934
X014736Y017134
X012736Y012134
X022736Y032934
X014736Y022134
X021736Y019134
X014736Y018134
X012736Y015134
X013736Y021134
X008736Y020134
X024736Y013134
X015736Y022134
X015736Y015134
X022736Y017134
X020736Y016134
X010736Y014134
X021736Y017134
X019736Y014134
X017736Y017134
X022736Y020134
X024736Y019134
X023736Y013134
X021736Y021134
X019736Y020134
X011736Y032934
X023736Y023134
X032736Y032934
X008736Y021134
X024736Y016134
X028736Y032934
X017736Y015134
X012736Y022134
X009736Y016134
X009736Y019134
X015736Y023134
X014736Y012134
X011736Y023134
X014736Y021134
X014736Y016134
X014736Y023134
X009736Y020134
X017736Y022134
X016736Y023134
X016736Y012134
X007736Y021134
X016736Y021134
X010736Y018134
X024736Y015134
X019736Y019134
X019736Y032934
X016736Y014134
X009736Y018134
X019736Y018134
X022736Y012134
X013736Y019134
X016736Y013134
X015736Y019134
X021736Y015134
X020736Y023134
X009736Y023134
X026736Y032934
X013736Y020134
X014736Y014134
X007736Y015134
X022736Y022134
X024736Y020134
X008736Y014134
X024736Y017134
X015736Y013134
X020736Y019134
X011736Y017134
X011736Y014134
X023736Y012134
X023736Y018134
X030736Y032934
X001736Y032934
X009736Y014134
X013736Y018134
X018736Y021134
X008736Y017134
X018736Y014134
X024736Y032934
X022736Y013134
X015736Y012134
X008736Y012134
X021736Y016134
X016736Y015134
X020736Y022134
X018736Y019134
X014736Y020134
X012736Y019134
X023736Y015134
X008736Y016134
X019736Y023134
X013736Y032934
X005736Y032934
X018736Y018134
X021736Y012134
X013736Y017134
X012736Y021134
X011736Y021134
X017736Y018134
X010736Y022134
X018736Y015134
X019736Y021134
X016736Y017134
X007736Y016134
X009736Y017134
X018736Y020134
X008736Y013134
X019736Y012134
X010736Y023134
X023736Y019134
X022736Y015134
X009736Y022134
X020736Y013134
X017736Y012134
X007736Y013134
X022736Y023134
X018736Y016134
X016736Y019134
X013736Y023134
X012736Y014134
X017736Y014134
X008736Y015134
X020736Y012134
X010736Y020134
X010736Y021134
X023736Y016134
X022736Y018134
X013736Y014134
X021736Y020134
X009736Y021134
X010736Y019134
X009736Y015134
X024736Y021134
X015736Y020134
X011736Y013134
X009736Y012134
X013736Y016134
X022736Y021134
X017736Y020134
X009736Y032934
X036736Y032934
X012736Y017134
X010736Y012134
X010736Y016134
X019736Y022134
X010736Y013134
X020736Y018134
X019736Y017134
X015736Y017134
X007736Y012134
X020736Y021134
X017736Y021134
X017736Y016134
X023736Y017134
X007736Y014134
X020736Y020134
X019736Y015134
X008736Y019134
X007736Y019134
X022736Y016134
X017736Y032934
X007736Y020134
X023736Y014134
X015736Y021134
X023736Y020134
X020736Y017134
X018736Y022134
X017736Y019134
X009736Y013134
X013736Y015134
X015736Y014134
X021736Y013134
X007736Y022134
X024736Y012134
X015736Y016134
X012736Y018134
X021736Y014134
X013736Y012134
X016736Y016134
X018736Y012134
X007736Y018134
X013736Y022134
X018736Y017134
X024736Y014134
X015736Y018134
X021736Y023134
X011736Y019134
X007736Y023134
X014736Y019134
X022736Y019134
X007736Y017134
X016736Y018134
X019736Y013134
X003736Y032934
X022736Y014134
X011736Y012134
X020736Y014134
X023736Y022134
X008736Y023134
X023736Y021134
X018736Y023134
X017736Y023134
X020736Y015134
X011736Y022134
X012736Y013134
X012736Y020134
X019736Y016134
X010736Y017134
X018736Y013134
X014736Y013134
X017736Y013134
X011736Y015134
X024736Y023134
X011736Y016134
X008736Y018134
X021736Y018134
X008736Y022134
X011736Y018134
X011736Y020134
X010736Y015134
X007736Y032934
X013736Y013134
X016736Y022134
X012736Y016134
X021736Y022134
X024736Y018134
X016736Y020134
X012736Y023134
X024736Y022134
X014736Y015134
X034736Y032934
T104
X028736Y010134
X030705Y010134
X028736Y008134
X030705Y008134
T105
X004073Y012844
X004073Y008844
X032736Y013134
X036736Y013134
T106
X019737Y027134
X023737Y008134
X020737Y027134
X022736Y008134
X023737Y027134
X012137Y027134
X013737Y008134
X024737Y027134
X011137Y027134
X018737Y008134
X016737Y008134
X012737Y008134
X025737Y008134
X020737Y008134
X008136Y027134
X021737Y008134
X014737Y008134
X018737Y027134
X010136Y027134
X022736Y027134
X017736Y008134
X015137Y027134
X009136Y027134
X011737Y008134
X025737Y027134
X021737Y027134
X014137Y027134
X024737Y008134
X015737Y008134
X013137Y027134
X016137Y027134
X017136Y027134
T00
M30
