G04 MADE WITH FRITZING*
G04 WWW.FRITZING.ORG*
G04 DOUBLE SIDED*
G04 HOLES PLATED*
G04 CONTOUR ON CENTER OF CONTOUR VECTOR*
%ASAXBY*%
%FSLAX23Y23*%
%MOIN*%
%OFA0B0*%
%SFA1.0B1.0*%
%ADD10C,0.088000*%
%ADD11C,0.075278*%
%ADD12C,0.088740*%
%ADD13C,0.084000*%
%ADD14C,0.085000*%
%ADD15C,0.072992*%
%ADD16C,0.090000*%
%ADD17C,0.075000*%
%ADD18C,0.089370*%
%ADD19R,0.072992X0.072992*%
%ADD20R,0.090000X0.090000*%
%ADD21R,0.089370X0.089370*%
%LNMASK0*%
G90*
G70*
G54D10*
X1874Y2413D03*
X1974Y2413D03*
X2074Y2413D03*
X2174Y2413D03*
X2274Y2413D03*
X2374Y2413D03*
X2474Y2413D03*
X2574Y2413D03*
X815Y2417D03*
X915Y2417D03*
X1015Y2417D03*
X1115Y2417D03*
X1215Y2417D03*
X1315Y2417D03*
X1415Y2417D03*
X1515Y2417D03*
X1615Y2417D03*
X1715Y2417D03*
G54D11*
X2174Y813D03*
X2274Y813D03*
X2374Y813D03*
X2474Y813D03*
X2574Y813D03*
X1714Y2713D03*
X1614Y2713D03*
X1514Y2713D03*
X1414Y2713D03*
X1314Y2713D03*
X1214Y2713D03*
X1114Y2713D03*
X1014Y2713D03*
X914Y2713D03*
X814Y2713D03*
X2574Y2713D03*
X2474Y2713D03*
X2374Y2713D03*
X2274Y2713D03*
X2174Y2713D03*
X2074Y2713D03*
X1974Y2713D03*
X1874Y2713D03*
X1274Y813D03*
X1174Y813D03*
X1374Y813D03*
X1474Y813D03*
X1574Y813D03*
X1674Y813D03*
X1774Y813D03*
X1874Y813D03*
X2074Y813D03*
G54D12*
X1874Y2313D03*
X1074Y1713D03*
X1074Y2213D03*
X1074Y2113D03*
X1074Y1413D03*
X1174Y1813D03*
X1074Y2313D03*
X1074Y1613D03*
X1074Y2013D03*
X1174Y2013D03*
X1074Y1513D03*
X1074Y1213D03*
X1074Y1913D03*
X1074Y1313D03*
X1174Y2113D03*
X1074Y1813D03*
X1174Y1513D03*
X1174Y1413D03*
X1274Y2013D03*
X1274Y1513D03*
X1274Y1813D03*
X1174Y2213D03*
X1174Y1313D03*
X1174Y1713D03*
X1174Y1213D03*
X1174Y1613D03*
X1174Y2313D03*
X1174Y1913D03*
X974Y2013D03*
X874Y1513D03*
X974Y1413D03*
X874Y1313D03*
X874Y1913D03*
X874Y1613D03*
X874Y1213D03*
X874Y2013D03*
X774Y2313D03*
X874Y1813D03*
X774Y1713D03*
X774Y2113D03*
X774Y1413D03*
X774Y2213D03*
X874Y2313D03*
X974Y1613D03*
X874Y1713D03*
X974Y2313D03*
X974Y2213D03*
X974Y2113D03*
X974Y1713D03*
X974Y1913D03*
X874Y2213D03*
X874Y2113D03*
X974Y1213D03*
X874Y1413D03*
X1274Y1313D03*
X974Y1313D03*
X974Y1813D03*
X1374Y1813D03*
X1574Y1913D03*
X1274Y1213D03*
X1574Y1613D03*
X1574Y1713D03*
X1574Y2213D03*
X1574Y2313D03*
X1574Y1213D03*
X1474Y2113D03*
X1574Y1313D03*
X1474Y1413D03*
X1574Y2013D03*
X1574Y1513D03*
X1574Y1813D03*
X1574Y2113D03*
X1674Y2313D03*
X1574Y1413D03*
X1674Y1713D03*
X1674Y2113D03*
X1674Y1413D03*
X1674Y2213D03*
X1674Y1613D03*
X1674Y1813D03*
X1674Y1913D03*
X1674Y2013D03*
X1674Y1313D03*
X1674Y1213D03*
X1674Y1513D03*
X1474Y2213D03*
X774Y1613D03*
X1474Y1713D03*
X1374Y2013D03*
X1374Y1313D03*
X1374Y1213D03*
X1374Y1513D03*
X1274Y1413D03*
X1274Y1913D03*
X1274Y2113D03*
X1274Y1613D03*
X1274Y1713D03*
X1274Y2213D03*
X1274Y2313D03*
X1374Y1913D03*
X1474Y1313D03*
X1374Y1613D03*
X1474Y1213D03*
X1474Y1613D03*
X1474Y2313D03*
X1474Y1913D03*
X1474Y1513D03*
X1374Y2313D03*
X1374Y1713D03*
X1474Y2013D03*
X1374Y2213D03*
X1374Y1413D03*
X1474Y1813D03*
X1374Y2113D03*
X974Y1513D03*
X2074Y2013D03*
X2174Y1713D03*
X2074Y1513D03*
X2074Y1213D03*
X2074Y1913D03*
X2074Y1313D03*
X2074Y1813D03*
X1974Y2113D03*
X1974Y2213D03*
X1974Y1313D03*
X1974Y1713D03*
X1974Y2013D03*
X1974Y1513D03*
X2074Y1613D03*
X2174Y1313D03*
X2074Y2313D03*
X2174Y1213D03*
X2174Y1613D03*
X2174Y2313D03*
X2174Y1913D03*
X2174Y1513D03*
X2074Y1713D03*
X2174Y2013D03*
X2074Y2213D03*
X2074Y1413D03*
X2174Y1813D03*
X2074Y2113D03*
X1974Y1613D03*
X1874Y1713D03*
X1974Y1413D03*
X1874Y1413D03*
X1874Y1213D03*
X1774Y2313D03*
X1874Y1313D03*
X1874Y1513D03*
X1874Y2213D03*
X1874Y1613D03*
X1874Y2113D03*
X1874Y1913D03*
X1874Y1813D03*
X1874Y2013D03*
X1774Y1913D03*
X1774Y2213D03*
X1774Y1813D03*
X1974Y2313D03*
X1974Y1813D03*
X774Y1913D03*
X1974Y1913D03*
X1774Y2013D03*
X1774Y1213D03*
X1774Y1413D03*
X1774Y1713D03*
X1774Y1613D03*
X1774Y1313D03*
X1774Y1513D03*
X1774Y2113D03*
X1974Y1213D03*
X2474Y2013D03*
X2474Y1513D03*
X2474Y1813D03*
X2474Y1313D03*
X774Y1813D03*
X2474Y1213D03*
X774Y2013D03*
X774Y1313D03*
X774Y1213D03*
X774Y1513D03*
X2474Y1413D03*
X2474Y1913D03*
X2474Y2113D03*
X2474Y1613D03*
X2474Y1713D03*
X2474Y2213D03*
X2474Y2313D03*
X2174Y2213D03*
X2274Y1613D03*
X2274Y1413D03*
X2274Y2313D03*
X2274Y2213D03*
X2274Y2113D03*
X2274Y1713D03*
X2274Y1913D03*
X2174Y2113D03*
X2174Y1413D03*
X2274Y1213D03*
X2274Y1813D03*
X2274Y1513D03*
X2274Y1313D03*
X2274Y2013D03*
X2374Y1713D03*
X2374Y2313D03*
X2374Y2213D03*
X2374Y1413D03*
X2374Y2113D03*
X2374Y1813D03*
X2374Y2013D03*
X2374Y1513D03*
X2374Y1313D03*
X2374Y1613D03*
X2374Y1213D03*
X2374Y1913D03*
G54D13*
X736Y1076D03*
X992Y1076D03*
X736Y898D03*
X992Y898D03*
G54D14*
X407Y884D03*
X407Y1284D03*
G54D15*
X3075Y1313D03*
X3174Y1313D03*
G54D16*
X3623Y1719D03*
X3623Y1919D03*
X3623Y2119D03*
X3623Y2319D03*
X3623Y2519D03*
G54D14*
X3274Y1313D03*
X3674Y1313D03*
G54D17*
X2874Y813D03*
X3071Y813D03*
X2874Y1013D03*
X3071Y1013D03*
G54D18*
X3674Y3293D03*
X3474Y3293D03*
X3274Y3293D03*
X3074Y3293D03*
X2874Y3293D03*
X2674Y3293D03*
X2474Y3293D03*
X2274Y3293D03*
X1974Y3293D03*
X1774Y3293D03*
X1574Y3293D03*
X1374Y3293D03*
X1174Y3293D03*
X974Y3293D03*
X774Y3293D03*
X574Y3293D03*
X374Y3293D03*
X174Y3293D03*
G54D16*
X3611Y232D03*
X3611Y432D03*
X3611Y632D03*
X3611Y832D03*
X3611Y1032D03*
X1674Y233D03*
X1874Y233D03*
X2074Y233D03*
X2274Y233D03*
X2474Y233D03*
X2674Y233D03*
X174Y233D03*
X374Y233D03*
X574Y233D03*
X774Y233D03*
X974Y233D03*
X1174Y233D03*
X1374Y233D03*
G54D10*
X1874Y1113D03*
X1774Y1113D03*
X1674Y1113D03*
X1574Y1113D03*
X1474Y1113D03*
X1374Y1113D03*
X1274Y1113D03*
X1174Y1113D03*
X1874Y1113D03*
X1774Y1113D03*
X1674Y1113D03*
X1574Y1113D03*
X1474Y1113D03*
X1374Y1113D03*
X1274Y1113D03*
X1174Y1113D03*
X2074Y1113D03*
X2174Y1113D03*
X2274Y1113D03*
X2374Y1113D03*
X2474Y1113D03*
X2574Y1113D03*
X2074Y1113D03*
X2174Y1113D03*
X2274Y1113D03*
X2374Y1113D03*
X2474Y1113D03*
X2574Y1113D03*
G54D19*
X3075Y1313D03*
G54D20*
X3623Y1719D03*
G54D21*
X3674Y3293D03*
X1974Y3293D03*
G54D20*
X3611Y232D03*
X1674Y233D03*
X174Y233D03*
G04 End of Mask0*
M02*